<?xml version="1.0" encoding="UTF-8" standalone="no"?>
<svg width="77px" height="94px" viewBox="0 0 77 94" version="1.1" xmlns="http://www.w3.org/2000/svg" xmlns:xlink="http://www.w3.org/1999/xlink" xmlns:sketch="http://www.bohemiancoding.com/sketch/ns">
    <!-- Generator: Sketch 3.3.3 (12072) - http://www.bohemiancoding.com/sketch -->
    <title>Logo Dark</title>
    <desc>Created with Sketch.</desc>
    <defs></defs>
    <g id="Page-1" stroke="none" stroke-width="1" fill="none" fill-rule="evenodd" sketch:type="MSPage">
        <g id="Logo-Dark" sketch:type="MSLayerGroup" fill="#3A3A3A">
            <path d="M2,9.99287225 L2,9.99287225 L2,84.0071278 C2,88.4229383 5.58302078,92 10.0071783,92 L66.9928217,92 C71.4205064,92 75,88.4237231 75,84.0071278 L75,9.99287225 C75,5.57706174 71.4169792,2 66.9928217,2 L10.0071783,2 C5.57949355,2 2,5.57627689 2,9.99287225 L2,9.99287225 Z M0,9.99287225 C0,4.4739613 4.47266735,0 10.0071783,0 L66.9928217,0 C72.5196336,0 77,4.47057774 77,9.99287225 L77,84.0071278 C77,89.5260387 72.5273326,94 66.9928217,94 L10.0071783,94 C4.48036635,94 0,89.5294223 0,84.0071278 L0,9.99287225 L0,9.99287225 Z" id="Shape" sketch:type="MSShapeGroup"></path>
            <path d="M29,32.0021917 C29,30.8964118 29.9016273,30 31.0008642,30 L50.9969294,30 C51.55091,30 52,30.448954 52,30.9996128 L52,31.0233186 C52,31.5753895 51.5613852,32.0229313 51.0012539,32.0229313 L31,32.0229313 L31,49 L42.9101976,49 C43.4574601,49 43.901104,49.4438648 43.901104,50 L43.901104,50 C43.901104,50.5522848 43.4570188,51 42.9101976,51 L31,51 L31,65.0459495 C31,65.5975593 30.5561352,66.0447272 30,66.0447271 L30,66.0447271 C29.4477153,66.0447269 29,65.5889883 29,65.0430645 L29,32.0021917 Z" id="F-Copy-5" stroke="#3A3A3A" stroke-width="2" sketch:type="MSShapeGroup"></path>
        </g>
    </g>
</svg>