<?xml version="1.0" encoding="UTF-8" standalone="no"?>
<svg width="77px" height="94px" viewBox="0 0 77 94" version="1.1" xmlns="http://www.w3.org/2000/svg" xmlns:xlink="http://www.w3.org/1999/xlink" xmlns:sketch="http://www.bohemiancoding.com/sketch/ns">
    <!-- Generator: Sketch 3.3.2 (12043) - http://www.bohemiancoding.com/sketch -->
    <title>Logo Light</title>
    <desc>Created with Sketch.</desc>
    <defs></defs>
    <g id="Page-1" stroke="none" stroke-width="1" fill="none" fill-rule="evenodd" sketch:type="MSPage">
        <g id="Logo-Light" sketch:type="MSLayerGroup">
            <rect id="Rectangle-1" stroke="#FFFFFF" stroke-width="4" sketch:type="MSShapeGroup" x="0" y="0" width="77" height="94" rx="10"></rect>
            <path d="M29,32.0021917 C29,30.8964118 29.9016273,30 31.0008642,30 L50.9969294,30 C51.55091,30 52,30.448954 52,30.9996128 L52,31.0233186 C52,31.5753895 51.5613852,32.0229313 51.0012539,32.0229313 L31,32.0229313 L31,49 L42.9101976,49 C43.4574601,49 43.901104,49.4438648 43.901104,50 L43.901104,50 C43.901104,50.5522848 43.4570188,51 42.9101976,51 L31,51 L31,65.0459495 C31,65.5975593 30.5561352,66.0447272 30,66.0447271 L30,66.0447271 C29.4477153,66.0447269 29,65.5889883 29,65.0430645 L29,32.0021917 Z" id="F-Copy-5" stroke="#FFFEF0" stroke-width="2" fill="#FFFFFF" sketch:type="MSShapeGroup"></path>
        </g>
    </g>
</svg>